<svg width="115" height="70" viewBox="0 0 205 112" fill="none" xmlns="http://www.w3.org/2000/svg">
<rect width="203.487" height="110.301" rx="36" transform="matrix(1 -4.89177e-05 -0.00351463 0.999994 1 1)" fill="#1FA4E5" fill-opacity="0.72"/>
<path d="M175.406 96.8688L154.406 96.8696L154.561 52.8699L154.161 52.8699L142.006 96.8701L117.906 96.8711L106.161 52.8718L105.661 52.8718L105.506 96.8715L86.4058 96.8723L86.6478 28.2727L121.048 28.2714L130.819 64.8708L131.219 64.8707L141.048 28.2706L175.648 28.2693L175.406 96.8688Z" fill="#0B1A4E"/>
<path d="M58.2058 26.4083C63.6725 26.408 68.6677 27.7744 73.1914 30.5075C77.782 33.174 81.4025 36.8071 84.053 41.407C86.7704 45.9401 88.1195 50.94 88.1002 56.4067L88.07 65.0066C88.0507 70.4733 86.6664 75.5066 83.9168 80.1067C81.2342 84.6401 77.5881 88.2736 72.9785 91.0072C68.4358 93.674 63.4311 95.0076 57.9644 95.0078L27.0644 95.0093L27.3058 26.4097L58.2058 26.4083ZM48.3204 79.1084L56.0204 79.108C58.8204 79.1079 61.1904 78.1411 63.1306 76.2077C65.0707 74.2743 66.0457 71.9076 66.0556 69.1076L66.1157 52.0077C66.1256 49.2077 65.1672 46.8411 63.2407 44.9079C61.3142 42.9747 58.9509 42.0081 56.1509 42.0083L48.4509 42.0086L48.3204 79.1084Z" fill="#DFDFDF"/>
<path d="M78.5292 91.0861L73.3092 91.0861L73.3091 106.716L67.069 106.716L67.0692 91.0861L61.8492 91.0861L61.8492 86.1361L78.5292 86.1361L78.5292 91.0861ZM88.7273 91.0861C90.2673 91.0861 91.5873 91.3861 92.6873 91.9861C93.8073 92.5661 94.6573 93.3761 95.2373 94.4161C95.8373 95.4561 96.1373 96.6461 96.1373 97.9861L96.1372 99.8461L86.1472 99.8461L86.1472 101.286C86.1472 101.966 86.3572 102.486 86.7772 102.846C87.2172 103.206 87.7772 103.386 88.4572 103.386C89.1572 103.386 89.6872 103.176 90.0472 102.756C90.4272 102.316 90.6172 101.716 90.6172 100.956L96.1072 100.956C96.1072 102.096 95.8072 103.126 95.2072 104.046C94.6272 104.966 93.7672 105.696 92.6272 106.236C91.5072 106.756 90.1772 107.016 88.6372 107.016L88.1872 107.016C86.5872 107.016 85.1472 106.726 83.8672 106.146C82.6072 105.546 81.6072 104.686 80.8672 103.566C80.1472 102.426 79.7872 101.076 79.7872 99.5161L79.7872 98.5861C79.7873 97.0261 80.1273 95.6861 80.8073 94.5661C81.5073 93.4261 82.4773 92.5661 83.7173 91.9861C84.9573 91.3861 86.3773 91.0861 87.9773 91.0861L88.7273 91.0861ZM88.2173 94.7161C87.6373 94.7161 87.1473 94.9261 86.7473 95.3461C86.3473 95.7461 86.1473 96.2361 86.1473 96.8161L86.1473 97.2361L90.2873 97.2361L90.2873 96.8161C90.2873 96.2361 90.0873 95.7461 89.6873 95.3461C89.2873 94.9261 88.7973 94.7161 88.2173 94.7161ZM106.175 91.0861C107.655 91.0861 108.935 91.3661 110.015 91.9261C111.095 92.4861 111.915 93.2661 112.475 94.2661C113.055 95.2461 113.345 96.3561 113.345 97.5961L108.275 97.5961L108.275 96.8161C108.275 96.2361 108.075 95.7461 107.675 95.3461C107.275 94.9261 106.785 94.7161 106.205 94.7161C105.625 94.7161 105.135 94.9261 104.735 95.3461C104.335 95.7461 104.135 96.2361 104.135 96.8161L104.135 101.286C104.135 101.866 104.335 102.366 104.735 102.786C105.155 103.186 105.655 103.386 106.235 103.386L106.595 103.386C107.175 103.386 107.655 103.186 108.035 102.786C108.415 102.386 108.605 101.886 108.605 101.286L108.605 100.506L113.345 100.506C113.345 102.566 112.705 104.166 111.425 105.306C110.145 106.446 108.405 107.016 106.205 107.016L105.335 107.016C103.995 107.016 102.745 106.686 101.585 106.026C100.425 105.366 99.4948 104.476 98.7948 103.356C98.1148 102.216 97.7748 100.986 97.7748 99.6661L97.7748 98.4361C97.7748 97.1161 98.1148 95.8961 98.7949 94.7761C99.4749 93.6361 100.385 92.7361 101.525 92.0761C102.685 91.4161 103.935 91.0861 105.275 91.0861L106.175 91.0861ZM121.515 93.1861C122.475 91.7861 123.735 91.0861 125.295 91.0861L126.135 91.0861C126.955 91.0861 127.705 91.2861 128.385 91.6861C129.085 92.0861 129.635 92.6361 130.035 93.3361C130.435 94.0161 130.635 94.7661 130.635 95.5861L130.635 106.716L124.695 106.716L124.695 97.1161C124.695 96.6161 124.535 96.1961 124.215 95.8561C123.915 95.4961 123.545 95.3161 123.105 95.3161C122.665 95.3161 122.285 95.4961 121.965 95.8561C121.665 96.1961 121.515 96.6161 121.515 97.1161L121.515 106.716L115.575 106.716L115.575 85.1161L121.515 85.1161L121.515 93.1861ZM154.395 91.0861L154.395 95.2561L143.955 99.0961L154.395 102.906L154.395 107.046L139.125 101.166L139.125 96.9961L154.395 91.0861ZM175.373 86.1362L160.702 111.846L156.742 111.846L171.443 86.1361L175.373 86.1362ZM177.663 91.0862L192.933 96.9962L192.933 101.166L177.663 107.046L177.663 102.906L188.103 99.0962L177.663 95.2562L177.663 91.0862Z" fill="#FFBE16"/>
</svg>
