<svg width="278" height="166" viewBox="0 0 278 166" fill="none" xmlns="http://www.w3.org/2000/svg">
<rect width="276.411" height="156.143" rx="35" transform="matrix(1 -4.66534e-05 -0.0035184 0.999994 1.13879 8.87115)" fill="#1FA4E5"/>
<path d="M240.013 141.995L208.513 141.996L208.746 75.9967L208.146 75.9967L189.913 141.997L153.763 141.998L136.146 75.9995L135.396 75.9995L135.163 141.999L106.513 142L106.876 39.1009L158.476 39.0989L173.132 93.9979L173.732 93.9979L188.476 39.0977L240.376 39.0957L240.013 141.995Z" fill="#0B1A4E"/>
<path d="M75.7339 40.2121C83.9339 40.2118 91.4267 42.2614 98.2122 46.3611C105.098 50.3608 110.529 55.8105 114.505 62.7103C118.581 69.51 120.604 77.0099 120.575 85.2098L120.53 98.1098C120.501 106.31 118.424 113.86 114.3 120.76C110.276 127.56 104.807 133.01 97.8926 137.111C91.0785 141.111 83.5715 143.111 75.3715 143.111L29.0215 143.114L29.3839 40.2142L75.7339 40.2121ZM60.9055 119.262L72.4555 119.262C76.6555 119.262 80.2106 117.811 83.1208 114.911C86.031 112.011 87.4935 108.461 87.5083 104.261L87.5986 78.6113C87.6134 74.4114 86.1759 70.8615 83.2862 67.9616C80.3964 65.0618 76.8515 63.6119 72.6515 63.6121L61.1015 63.6126L60.9055 119.262Z" fill="#DFC4C4"/>
</svg>
