<?xml version="1.0" encoding="UTF-8"?>
<svg id="Camada_1" data-name="Camada 1" xmlns="http://www.w3.org/2000/svg" xmlns:xlink="http://www.w3.org/1999/xlink" viewBox="0 0 353.71 337.38">
  <defs>
    <style>
      .cls-1 {
        fill: url(#Gradiente_sem_nome_2);
      }

      .cls-1, .cls-2, .cls-3 {
        stroke-width: 0px;
      }

      .cls-2 {
        fill: url(#Gradiente_sem_nome_4);
      }

      .cls-3 {
        fill: url(#Gradiente_sem_nome_3);
      }
    </style>
    <linearGradient id="Gradiente_sem_nome_2" data-name="Gradiente sem nome 2" x1="0" y1="150.82" x2="293.43" y2="150.82" gradientTransform="translate(0 410.76) scale(1 -1)" gradientUnits="userSpaceOnUse">
      <stop offset="0" stop-color="#001a6d"/>
      <stop offset=".52" stop-color="#25598a"/>
    </linearGradient>
    <linearGradient id="Gradiente_sem_nome_3" data-name="Gradiente sem nome 3" x1="104.6" y1="238.09" x2="353.71" y2="238.09" gradientTransform="translate(0 410.76) scale(1 -1)" gradientUnits="userSpaceOnUse">
      <stop offset="0" stop-color="#001a6d"/>
      <stop offset=".77" stop-color="#25598a"/>
    </linearGradient>
    <linearGradient id="Gradiente_sem_nome_4" data-name="Gradiente sem nome 4" x1="17.57" y1="325.14" x2="233.92" y2="325.14" gradientTransform="translate(0 410.76) scale(1 -1)" gradientUnits="userSpaceOnUse">
      <stop offset="0" stop-color="#001a6d"/>
      <stop offset=".44" stop-color="#214085"/>
      <stop offset=".54" stop-color="#254588"/>
      <stop offset=".8" stop-color="#214085"/>
    </linearGradient>
  </defs>
  <path class="cls-1" d="m250.43,182.5c2.56,5.59,5.1,11.2,7.66,16.8-57.97,11.12-115.94,22.23-173.89,33.35-20.28-27.39-47.95-38.88-64.45-30.86-15.11,7.33-17.55,29.38-19.25,44.74-.55,4.88-4.06,41.28,19.65,70.2,4.85,5.91,13.1,15.7,26.73,19.29,9.23,2.43,17.09,1,20.85.27,79.05-15.39,143.42-43.47,143.42-43.47,33.73-14.72,61.86-27.29,82.28-36.51-14.35-24.61-28.67-49.2-43-73.81Z"/>
  <path class="cls-3" d="m115.24,121.56c15.46,12.34,30.92,24.69,46.37,37.03,13.62-8.48,27.25-16.98,40.87-25.46,27.75,37.95,39.9,68,45.59,85.63,2.01,6.22,4.97,14.34,3.78,24.69-2.81,24.42-25,40.03-33.85,45.59,35.95-12.83,63.04-26.09,81.56-36.18,9.63-5.24,17.79-10.1,26.41-18.47,8.47-8.25,27.16-26.07,27.74-52.8.38-17.88-7.49-31.34-10.02-35.35-5.19-8.23-11.24-13.71-15.46-16.98-39.18-24.2-78.36-48.4-117.52-72.6-59.29-3.19-101.12,13.79-105.69,36.33-.91,4.57-1.29,14.19,10.23,28.55Z"/>
  <path class="cls-2" d="m233.92,69.86c-13.28-3.61-53.39-12.84-88.03,5.4-9.46,4.98-25.27,13.31-29.86,30.09-2.15,7.85-1.12,14.92,0,19.47.77,8.62,1.55,17.25,2.32,25.87-.51,5.91-2.3,13.04-7.81,17.15-13.66,10.23-39.85-5.61-47.54-10.26-7.77-4.69-27.15-16.55-38.13-41.43-10.4-23.57-7.11-44.73-5.51-52.46,1.8-9.29,9.2-41.54,36.4-55.81,24.56-12.9,54-9.6,83.08,7.21,29.34,16.98,58.68,33.95,88.03,50.91"/>
</svg>